# xmcd
#
# Track frame offsets: 
#        150
#        40399
#        70350
#        100513
#        130496
#        159166
#        194032
#        222472
#        253730
#        270956
#        285835
#        302667
#        329576
#
# Disc length: 4622 seconds
#
# Revision: 0
# Processed by: cddbd v1.5.2PL0 Copyright (c) Steve Scherf et al.
# Submitted via: ExactAudioCopy v1.0b3
#
DISCID=c0120c0d
DTITLE=Various Artist - Hypetraxx - The Real Club Sound - CD 1
DYEAR=1900
DGENRE=
TTITLE0=David Kane - My House Anthem
TTITLE1=Steve Shine - Nightbeat
TTITLE2=Robotoid - Music Radio Actif
TTITLE3=DJ Crazy Feat. Vicky Verssace - Dreamcode
TTITLE4=Electro Pumpin' - Welcome 2 My World
TTITLE5=Vince J. - Black Tube
TTITLE6=Swindlers - Stop In My Mind
TTITLE7=South Men - The Cell
TTITLE8=Danny Wild - Crazy Sax
TTITLE9=Kaminsky - House Victim
TTITLE10=N-Gels Feat. Estelle Desanges - On Fire
TTITLE11=Nico Ortiz - Message
TTITLE12=Phil Conil and DJ Lazz - Passion
EXTD=
EXTT0=
EXTT1=
EXTT2=
EXTT3=
EXTT4=
EXTT5=
EXTT6=
EXTT7=
EXTT8=
EXTT9=
EXTT10=
EXTT11=
EXTT12=
PLAYORDER=
